<svg xmlns="http://www.w3.org/2000/svg" width="328" height="134" fill="none" viewBox="0 0 328 134">
    <rect width="328" height="134" fill="#FFAB00" rx="4"/>
    <mask id="a" width="328" height="134" x="0" y="0" maskUnits="userSpaceOnUse">
        <rect width="328" height="134" fill="#FFAB00" rx="4"/>
    </mask>
    <g fill="#FF9600" fill-rule="evenodd" clip-rule="evenodd" mask="url(#a)">
        <path d="M265.16 31.833c1.011-2.344 1.516-3.516 2.517-4.175 1-.658 2.277-.658 4.83-.658h58.986c2.553 0 3.83 0 4.83.658 1 .659 1.506 1.83 2.517 4.175l10.346 24c2.174 5.043 3.261 7.564 2.075 9.365C350.076 67 347.331 67 341.839 67H262.16c-5.49 0-8.236 0-9.421-1.802-1.186-1.801-.099-4.322 2.075-9.365l10.346-24zM209.16 79.833c1.011-2.344 1.517-3.516 2.517-4.175 1-.658 2.277-.658 4.83-.658h58.986c2.553 0 3.83 0 4.83.658 1 .659 1.506 1.83 2.517 4.175l10.346 24c2.174 5.043 3.261 7.564 2.075 9.365-1.185 1.802-3.93 1.802-9.421 1.802h-79.68c-5.49 0-8.236 0-9.421-1.802-1.186-1.801-.099-4.322 2.075-9.365l10.347-24zM321.16 79.833c1.011-2.344 1.516-3.516 2.517-4.175 1-.658 2.277-.658 4.83-.658h58.986c2.553 0 3.83 0 4.83.658 1 .659 1.506 1.83 2.517 4.175l10.346 24c2.174 5.043 3.261 7.564 2.075 9.365-1.185 1.802-3.93 1.802-9.422 1.802H318.16c-5.49 0-8.236 0-9.421-1.802-1.186-1.801-.099-4.322 2.075-9.365l10.346-24z"/>
    </g>
</svg>
