<svg xmlns="http://www.w3.org/2000/svg" width="28" height="31" fill="none" viewBox="0 0 28 31">
    <path fill="#FFAB00" d="M24.91 15.999h.933v-.894c1.434-.147 2.142-.982 2.142-2.072 0-1.336-1.13-1.73-2.142-1.985V9.663c.442.108.865.315 1.218.639l.776-1.022c-.53-.481-1.198-.785-1.994-.874v-.933h-.933v.913c-1.326.138-2.112.983-2.112 1.975 0 1.336 1.1 1.709 2.112 1.964v1.552a2.84 2.84 0 0 1-1.562-.844l-.756 1.06c.53.54 1.287.934 2.318 1.022v.884zm1.66-2.81c0 .305-.245.59-.727.688v-1.316c.423.138.727.305.727.629zm-2.347-2.946c0-.334.245-.58.687-.639v1.199c-.412-.118-.687-.275-.687-.56zM13.372 13.642h1.493v-1.43c2.294-.236 3.426-1.572 3.426-3.317 0-2.137-1.808-2.766-3.426-3.174V3.505a4.408 4.408 0 0 1 1.949 1.021l1.241-1.634c-.849-.77-1.917-1.258-3.19-1.399V0h-1.493v1.462c-2.122.22-3.38 1.571-3.38 3.159 0 2.137 1.76 2.734 3.38 3.143v2.483a4.545 4.545 0 0 1-2.5-1.352l-1.21 1.698c.85.864 2.06 1.493 3.71 1.634v1.415zm2.656-4.495c0 .487-.393.943-1.163 1.1V8.14c.676.22 1.163.487 1.163 1.006zm-3.756-4.715c0-.534.392-.927 1.1-1.022v1.918c-.66-.189-1.1-.44-1.1-.896zM2.318 15.999h.933v-.894c1.434-.147 2.142-.982 2.142-2.072 0-1.336-1.13-1.73-2.142-1.985V9.663c.442.108.865.315 1.218.639l.776-1.022c-.53-.481-1.198-.785-1.994-.874v-.933h-.933v.913C.992 8.524.206 9.37.206 10.361c0 1.336 1.1 1.709 2.112 1.964v1.552a2.84 2.84 0 0 1-1.562-.844L0 14.093c.53.54 1.287.934 2.318 1.022v.884zm1.66-2.81c0 .305-.245.59-.727.688v-1.316c.423.138.727.305.727.629zm-2.347-2.946c0-.334.245-.58.687-.639v1.199c-.412-.118-.687-.275-.687-.56z"/>
    <path stroke="#FFAB00" stroke-width="1.96452" d="M17.128 16.981h-6.993a.491.491 0 0 0-.467.342l-1.34 4.196a.491.491 0 0 0 .469.64h9.67a.491.491 0 0 0 .467-.64l-1.338-4.196a.491.491 0 0 0-.468-.342zM24.004 24.84H17.01a.491.491 0 0 0-.468.341l-1.338 4.196a.491.491 0 0 0 .468.64h9.67a.491.491 0 0 0 .467-.64l-1.339-4.196a.491.491 0 0 0-.467-.342zM10.252 24.84H3.26a.491.491 0 0 0-.468.341l-1.339 4.196a.491.491 0 0 0 .468.64h9.67a.491.491 0 0 0 .468-.64l-1.34-4.196a.491.491 0 0 0-.467-.342z"/>
</svg>
