<svg xmlns="http://www.w3.org/2000/svg" width="164" height="59" fill="none" viewBox="0 0 164 59">
    <path fill="#FFAB00" fill-rule="evenodd" d="M14.38 8.974c-.859 0-1.62.55-1.892 1.364l-2.028 6.083c-.33.99.159 2.006 1.02 2.425H5.404c-.858 0-1.62.55-1.892 1.364l-2.027 6.083a1.994 1.994 0 0 0 1.892 2.625H18.56c.547 0 1.03-.216 1.383-.558.354.342.836.558 1.384.558h15.182a1.994 1.994 0 0 0 1.892-2.625l-2.028-6.083a1.994 1.994 0 0 0-1.892-1.364h-6.074a1.996 1.996 0 0 0 1.02-2.425l-2.028-6.083a1.994 1.994 0 0 0-1.892-1.364H14.38zm8.105 10.072h-5.084c.474.23.85.642 1.023 1.164l1.52 4.557 1.518-4.557c.174-.522.55-.935 1.023-1.164zm-8.105-8.077h11.127l2.027 6.082H12.352l2.028-6.082zm2.152 9.872H5.405l-2.027 6.082H18.56l-2.028-6.082zm17.949 0H23.354l-2.027 6.082h15.182l-2.028-6.082z" clip-rule="evenodd"/>
    <path fill="#222" d="M105.44 59c1.66 0 2.96-.963 2.96-2.974v-6.505h-1.16v6.491c0 1.16-.725 1.955-1.87 1.955-.81 0-1.354-.433-1.745-.921l-.614.88c.642.753 1.451 1.074 2.429 1.074zm10.688-.168V52.09h-1.047v4.956c-.391.544-1.173 1.019-1.983 1.019-.921 0-1.521-.35-1.521-1.536v-4.44h-1.047v4.761c0 1.452.74 2.15 2.15 2.15 1.005 0 1.884-.53 2.4-1.117v.95h1.048zm7.354 0v-4.634c0-1.634-1.173-2.276-2.61-2.276-1.104 0-1.97.363-2.695 1.117l.488.726c.6-.656 1.257-.935 2.067-.935.977 0 1.703.516 1.703 1.41v1.214c-.545-.614-1.313-.907-2.234-.907-1.145 0-2.345.698-2.345 2.22 0 1.465 1.214 2.233 2.345 2.233.908 0 1.69-.321 2.234-.935v.767h1.047zm-2.89-.586c-.991 0-1.675-.614-1.675-1.48 0-.851.684-1.465 1.675-1.465.726 0 1.438.279 1.843.823v1.285c-.405.558-1.117.837-1.843.837zm6.05.586v-9.311h-1.048v9.311h1.047zm11.843 0V57.8h-4.942v-3.21h4.844v-1.034h-4.844v-3.001h4.942v-1.033h-6.1v9.311h6.1zm10.991 0V53.96c0-1.354-.656-2.038-1.884-2.038-.977 0-1.885.642-2.262 1.257-.195-.698-.782-1.257-1.8-1.257-1.006 0-1.9.712-2.192 1.145v-.977h-1.047v6.742h1.047v-4.927c.363-.545 1.089-1.048 1.773-1.048.893 0 1.242.545 1.242 1.397v4.578h1.047v-4.941c.35-.545 1.089-1.034 1.787-1.034.88 0 1.242.545 1.242 1.397v4.578h1.047zm7.352 0v-4.634c0-1.634-1.172-2.276-2.61-2.276-1.103 0-1.969.363-2.695 1.117l.489.726c.6-.656 1.256-.935 2.066-.935.977 0 1.703.516 1.703 1.41v1.214c-.544-.614-1.312-.907-2.233-.907-1.145 0-2.346.698-2.346 2.22 0 1.465 1.215 2.233 2.346 2.233.907 0 1.689-.321 2.233-.935v.767h1.047zm-2.89-.586c-.99 0-1.675-.614-1.675-1.48 0-.851.684-1.465 1.675-1.465.726 0 1.438.279 1.843.823v1.285c-.405.558-1.117.837-1.843.837zm7.153.754c1.73 0 2.638-.907 2.638-2.038 0-2.625-4.174-1.661-4.174-3.127 0-.6.572-1.061 1.494-1.061.88 0 1.605.363 2.01.851l.489-.726c-.53-.544-1.34-.977-2.5-.977-1.605 0-2.498.88-2.498 1.94 0 2.5 4.174 1.494 4.174 3.128 0 .67-.572 1.158-1.605 1.158-.922 0-1.773-.446-2.22-.963l-.53.754c.683.712 1.605 1.061 2.722 1.061z"/>
    <path fill="#FFAB00" d="M144.677 19.943h.947v-.907c1.456-.15 2.174-.997 2.174-2.104 0-1.356-1.147-1.755-2.174-2.014v-1.406c.449.11.878.319 1.237.648l.787-1.037c-.538-.489-1.216-.798-2.024-.888v-.947h-.947v.927c-1.346.14-2.144.997-2.144 2.005 0 1.356 1.117 1.735 2.144 1.994v1.575a2.884 2.884 0 0 1-1.586-.857l-.767 1.077c.538.548 1.306.947 2.353 1.037v.897zm1.685-2.852c0 .31-.25.599-.738.698v-1.336c.429.14.738.31.738.638zM143.98 14.1c0-.34.25-.588.698-.648v1.216c-.419-.12-.698-.279-.698-.568zM132.964 17.55h1.515v-1.452c2.33-.24 3.478-1.595 3.478-3.366 0-2.17-1.834-2.808-3.478-3.223v-2.25c.718.176 1.404.51 1.979 1.037l1.26-1.659c-.861-.782-1.946-1.276-3.239-1.42V3.701h-1.515v1.484c-2.154.224-3.43 1.596-3.43 3.207 0 2.17 1.786 2.776 3.43 3.191v2.52a4.614 4.614 0 0 1-2.537-1.371l-1.229 1.723c.862.877 2.09 1.516 3.766 1.66v1.435zm2.696-4.563c0 .495-.399.957-1.18 1.117v-2.138c.685.223 1.18.495 1.18 1.021zm-3.813-4.786c0-.543.399-.942 1.117-1.037V9.11c-.67-.191-1.117-.447-1.117-.91zM121.742 19.943h.947v-.907c1.456-.15 2.174-.997 2.174-2.104 0-1.356-1.147-1.755-2.174-2.014v-1.406c.449.11.878.319 1.237.648l.787-1.037c-.538-.489-1.216-.798-2.024-.888v-.947h-.947v.927c-1.346.14-2.144.997-2.144 2.005 0 1.356 1.117 1.735 2.144 1.994v1.575a2.884 2.884 0 0 1-1.586-.857l-.767 1.077c.538.548 1.306.947 2.353 1.037v.897zm1.685-2.852c0 .31-.25.599-.738.698v-1.336c.429.14.738.31.738.638zm-2.383-2.991c0-.34.25-.588.698-.648v1.216c-.419-.12-.698-.279-.698-.568z"/>
    <path stroke="#FFAB00" stroke-width="1.99432" d="M136.777 20.94h-7.099a.499.499 0 0 0-.475.347l-1.359 4.26a.499.499 0 0 0 .475.65h9.817a.499.499 0 0 0 .475-.65l-1.36-4.26a.499.499 0 0 0-.474-.347zM143.757 28.918h-7.099a.499.499 0 0 0-.475.347l-1.359 4.26a.499.499 0 0 0 .475.65h9.817a.499.499 0 0 0 .475-.65l-1.36-4.26a.499.499 0 0 0-.474-.347zM129.796 28.918h-7.099a.499.499 0 0 0-.475.347l-1.359 4.26a.499.499 0 0 0 .475.65h9.817a.499.499 0 0 0 .475-.65l-1.36-4.26a.499.499 0 0 0-.474-.347z"/>
</svg>
