<svg xmlns="http://www.w3.org/2000/svg" width="40" height="40" fill="none" viewBox="0 0 40 40">
    <path fill="#FFAB00" d="M5.187 23.658l-2.79 2.847c-.54.55-.527 1.43.03 1.964.272.262.624.392.976.392.367 0 .733-.141 1.008-.422l2.791-2.847c.54-.55.526-1.43-.03-1.964a1.414 1.414 0 0 0-1.985.03zM15.95 26.222c-.746 0-1.35.337-1.35.752v8.274c0 .415.604.752 1.35.752.746 0 1.35-.337 1.35-.752v-8.274c0-.415-.604-.752-1.35-.752zM33.79 4h-4.211c-.775 0-1.404.622-1.404 1.389s.629 1.389 1.404 1.389h3.7L22.971 16.974a1.436 1.436 0 0 1-1.018.429 1.438 1.438 0 0 1-.966-.43l-1.65-1.632c-.808-.8-1.88-1.263-2.943-1.271h-.03c-1.1 0-2.198.475-3.019 1.307l-3.007 2.99a1.379 1.379 0 0 0 .004 1.964c.274.27.632.405.99.405.36 0 .72-.136.995-.409l3.013-2.995.012-.012c.293-.3.675-.476 1.019-.473.327.003.694.174.98.458l1.65 1.633a4.224 4.224 0 0 0 2.9 1.242 4.267 4.267 0 0 0 3.055-1.242L35.193 8.811v3.453c0 .767.628 1.389 1.404 1.389.775 0 1.403-.622 1.403-1.39V8.168C38 5.869 36.111 4 33.79 4zM6.055 30.667c-.748-.002-1.355.377-1.355.846v3.64c0 .468.604.847 1.35.847.746 0 1.35-.38 1.35-.847v-3.64c0-.466-.602-.845-1.345-.846zM35.75 18.222c-.746 0-1.35.467-1.35 1.043v15.692c0 .576.604 1.043 1.35 1.043.745 0 1.35-.467 1.35-1.043V19.265c0-.576-.604-1.043-1.35-1.043zM25.845 22.667c-.744.002-1.345.438-1.345.976v11.38c0 .54.604.977 1.35.977.745 0 1.35-.437 1.35-.977v-11.38c0-.54-.608-.978-1.355-.976z"/>
</svg>
