<svg xmlns="http://www.w3.org/2000/svg" width="328" height="134" fill="none" viewBox="0 0 328 134">
    <rect width="328" height="134" fill="#FFAB00" rx="4"/>
    <mask id="a" width="328" height="134" x="0" y="0" maskUnits="userSpaceOnUse">
        <rect width="328" height="134" fill="#FFAB00" rx="4"/>
    </mask>
    <g fill="#FF9600" fill-rule="evenodd" clip-rule="evenodd" mask="url(#a)">
        <path d="M265.16 31.833c1.011-2.344 1.516-3.516 2.517-4.175 1-.658 2.277-.658 4.83-.658h58.986c2.553 0 3.83 0 4.83.658 1 .659 1.506 1.83 2.517 4.175l10.346 24c2.174 5.043 3.261 7.564 2.075 9.365C350.076 67 347.331 67 341.839 67H262.16c-5.49 0-8.236 0-9.421-1.802-1.186-1.801-.099-4.322 2.075-9.365l10.346-24zM209.16 79.833c1.011-2.344 1.517-3.516 2.517-4.175 1-.658 2.277-.658 4.83-.658h58.986c2.553 0 3.83 0 4.83.658 1 .659 1.506 1.83 2.517 4.175l10.346 24c2.174 5.043 3.261 7.564 2.075 9.365-1.185 1.802-3.93 1.802-9.421 1.802h-79.68c-5.49 0-8.236 0-9.421-1.802-1.186-1.801-.099-4.322 2.075-9.365l10.347-24zM321.16 79.833c1.011-2.344 1.516-3.516 2.517-4.175 1-.658 2.277-.658 4.83-.658h58.986c2.553 0 3.83 0 4.83.658 1 .659 1.506 1.83 2.517 4.175l10.346 24c2.174 5.043 3.261 7.564 2.075 9.365-1.185 1.802-3.93 1.802-9.422 1.802H318.16c-5.49 0-8.236 0-9.421-1.802-1.186-1.801-.099-4.322 2.075-9.365l10.346-24z"/>
    </g>
    <path fill="#fff" d="M38.675 73L34.6 66.45c2-.325 3.95-1.925 3.95-4.9 0-3.075-2.15-5.225-5.45-5.225h-7.325V73H28.7v-6.225h2.9L35.3 73h3.375zM32.7 64.2h-4v-5.3h4c1.65 0 2.85 1.05 2.85 2.65 0 1.6-1.2 2.65-2.85 2.65zm15.198 9.1c3.125 0 5.35-2.375 5.35-6.35 0-3.975-2.225-6.325-5.35-6.325-1.575 0-2.975.75-3.875 1.95v-1.65h-2.625V77.6h2.625v-6.275c.975 1.3 2.35 1.975 3.875 1.975zm-.775-2.325c-1.225 0-2.525-.75-3.1-1.625v-4.775c.575-.9 1.875-1.625 3.1-1.625 2.075 0 3.4 1.675 3.4 4 0 2.35-1.325 4.025-3.4 4.025zm21.35 2.325c3.724 0 6.15-2.5 6.15-5.6 0-3.55-2.576-5.375-5.576-5.375-1.975 0-3.725 1.2-4.475 2.325-.025-.15-.025-.3-.025-.475 0-2.925 1.625-5.5 4.4-5.5 1.6 0 2.55.55 3.425 1.475l1.375-2.225c-1.125-1.1-2.725-1.85-4.8-1.85-4.825 0-7.35 3.8-7.35 8.625 0 4.625 1.975 8.6 6.875 8.6zm-.15-2.6c-2.576 0-3.55-2.1-3.726-3.9.85-1.2 2.225-1.975 3.65-1.975 1.825 0 3.425.925 3.425 2.975 0 1.35-1.15 2.9-3.35 2.9zM81.811 73l6.475-14.65v-2.025H76.262V58.9h8.65l-6.3 14.1h3.2zm14.53.3c3.4 0 6.376-1.6 6.376-4.575 0-2.125-1.725-3.65-3.75-4.325 1.875-.6 3.5-1.825 3.5-3.95 0-3.075-3.2-4.375-6.125-4.375-2.975 0-6.125 1.3-6.125 4.375 0 2.125 1.6 3.35 3.475 3.95-2.025.675-3.75 2.2-3.75 4.325 0 3 2.975 4.575 6.4 4.575zm0-10.05c-1.024-.175-3.174-.775-3.174-2.35 0-1.4 1.35-2.225 3.175-2.225 1.775 0 3.15.825 3.15 2.225 0 1.575-2.125 2.175-3.15 2.35zm0 7.45c-1.9 0-3.45-.9-3.45-2.35 0-1.725 2.4-2.5 3.45-2.625 1.026.125 3.426.9 3.426 2.625 0 1.45-1.575 2.35-3.425 2.35zm10.469 2.575c.95 0 1.75-.8 1.75-1.75s-.8-1.75-1.75-1.75-1.75.8-1.75 1.75.8 1.75 1.75 1.75zm7.545-.275l6.475-14.65v-2.025h-12.025V58.9h8.65l-6.3 14.1h3.2zm14.681.3c3.725 0 6.35-2.175 6.35-5.65 0-3.4-2.525-5.375-5.325-5.375-1.6 0-2.975.65-3.775 1.45V58.9h8v-2.575h-10.926v9.325l2.076.6c1.05-1 2.225-1.45 3.65-1.45 2.05 0 3.35 1.175 3.35 2.975 0 1.625-1.325 2.925-3.425 2.925-1.875 0-3.375-.7-4.5-1.975l-1.675 2c1.35 1.6 3.325 2.575 6.2 2.575zm18.965-.3v-3.775h2.225V66.65h-2.225V56.325h-4.025l-6.85 10.55v2.35h7.95V73h2.925zm-2.925-6.35h-5.075l5.075-7.7v7.7zM116.234 100.296c-.91-1.764-1.47-3.374-1.47-5.698 0-2.338.56-3.934 1.47-5.712l-.644-.476c-1.26 1.736-1.974 3.934-1.974 6.188 0 2.254.714 4.452 1.974 6.188l.644-.49zM120.127 98v-9.338h-1.022l-2.338 2.408.7.714 1.498-1.596V98h1.162zm2.7.14c.42 0 .77-.35.77-.77 0-.42-.35-.77-.77-.77-.42 0-.77.35-.77.77 0 .42.35.77.77.77zm8.798-.14v-1.036h-4.578c2.604-2.058 4.536-3.794 4.536-5.698 0-1.862-1.582-2.744-3.136-2.744-1.316 0-2.534.518-3.248 1.47l.714.742c.546-.7 1.414-1.176 2.534-1.176.966 0 1.96.504 1.96 1.708 0 1.61-1.834 3.164-5.194 5.796V98h6.412zm8.451 2.744c1.653 0 3.235-.7 3.235-2.842v-6.664h-1.05v1.022c-.546-.742-1.372-1.19-2.282-1.19-1.779 0-3.01 1.344-3.01 3.514 0 2.184 1.246 3.5 3.01 3.5.951 0 1.777-.518 2.281-1.204v1.022c0 1.428-1.063 1.974-2.183 1.974-.966 0-1.638-.252-2.198-.91l-.532.756c.811.798 1.595 1.022 2.73 1.022zm.169-3.598c-1.372 0-2.184-1.078-2.184-2.562 0-1.498.812-2.576 2.184-2.576.826 0 1.638.504 2.016 1.078v2.968c-.378.588-1.19 1.092-2.016 1.092zm6.218.854v-4.788c.308-.546 1.19-1.078 1.848-1.078.154 0 .28.014.406.028v-1.078c-.924 0-1.708.532-2.254 1.232v-1.078h-1.05V98h1.05zm8.85 0v-4.648c0-1.638-1.177-2.282-2.619-2.282-1.106 0-1.974.364-2.702 1.12l.49.728c.602-.658 1.26-.938 2.072-.938.98 0 1.708.518 1.708 1.414v1.218c-.546-.616-1.316-.91-2.24-.91-1.148 0-2.352.7-2.352 2.226 0 1.47 1.218 2.24 2.352 2.24.91 0 1.694-.322 2.24-.938V98h1.05zm-2.899-.588c-.994 0-1.68-.616-1.68-1.484 0-.854.686-1.47 1.68-1.47.728 0 1.442.28 1.848.826v1.288c-.406.56-1.12.84-1.848.84zm14.229.588v-4.886c0-1.358-.658-2.044-1.89-2.044-.98 0-1.89.644-2.268 1.26-.196-.7-.784-1.26-1.806-1.26-1.008 0-1.904.714-2.198 1.148v-.98h-1.05V98h1.05v-4.942c.364-.546 1.092-1.05 1.778-1.05.896 0 1.246.546 1.246 1.4V98h1.05v-4.956c.35-.546 1.092-1.036 1.792-1.036.882 0 1.246.546 1.246 1.4V98h1.05zm1.282 2.296c.91-1.764 1.47-3.374 1.47-5.698 0-2.338-.56-3.934-1.47-5.712l.644-.476c1.26 1.736 1.975 3.934 1.975 6.188 0 2.254-.715 4.452-1.975 6.188l-.643-.49zM26.59 98.168c1.666 0 2.968-.966 2.968-2.982v-6.524h-1.162v6.51c0 1.162-.728 1.96-1.876 1.96-.812 0-1.358-.434-1.75-.924l-.616.882c.644.756 1.456 1.078 2.436 1.078zM37.309 98v-6.762h-1.05v4.97c-.393.546-1.177 1.022-1.989 1.022-.923 0-1.525-.35-1.525-1.54v-4.452h-1.05v4.774c0 1.456.742 2.156 2.156 2.156 1.008 0 1.89-.532 2.408-1.12V98h1.05zm11.309 0v-4.886c0-1.358-.659-2.044-1.89-2.044-.98 0-1.89.644-2.269 1.26-.196-.7-.784-1.26-1.806-1.26-1.008 0-1.903.714-2.197 1.148v-.98h-1.05V98h1.05v-4.942c.363-.546 1.091-1.05 1.777-1.05.897 0 1.247.546 1.247 1.4V98h1.05v-4.956c.35-.546 1.091-1.036 1.791-1.036.883 0 1.247.546 1.247 1.4V98h1.05zm3.144 0v-9.338h-1.05V98h1.05zm7.373 0v-4.648c0-1.638-1.176-2.282-2.618-2.282-1.106 0-1.974.364-2.702 1.12l.49.728c.602-.658 1.26-.938 2.072-.938.98 0 1.708.518 1.708 1.414v1.218c-.546-.616-1.316-.91-2.24-.91-1.148 0-2.352.7-2.352 2.226 0 1.47 1.218 2.24 2.352 2.24.91 0 1.694-.322 2.24-.938V98h1.05zm-2.898-.588c-.994 0-1.68-.616-1.68-1.484 0-.854.686-1.47 1.68-1.47.728 0 1.442.28 1.848.826v1.288c-.406.56-1.12.84-1.848.84zM66.88 98v-4.774c0-1.47-.742-2.156-2.156-2.156-1.022 0-1.946.574-2.408 1.148v-3.556h-1.05V98h1.05v-4.942c.392-.546 1.176-1.05 1.988-1.05.924 0 1.526.336 1.526 1.54V98h1.05zm11.88 0v-1.036h-4.956v-3.22h4.858v-1.036h-4.858v-3.01h4.956v-1.036h-6.118V98h6.118zm11.023 0v-4.886c0-1.358-.659-2.044-1.89-2.044-.98 0-1.89.644-2.269 1.26-.196-.7-.783-1.26-1.806-1.26-1.007 0-1.903.714-2.197 1.148v-.98h-1.05V98h1.05v-4.942c.364-.546 1.092-1.05 1.778-1.05.895 0 1.245.546 1.245 1.4V98h1.05v-4.956c.35-.546 1.093-1.036 1.793-1.036.882 0 1.246.546 1.246 1.4V98h1.05zm7.372 0v-4.648c0-1.638-1.176-2.282-2.618-2.282-1.106 0-1.974.364-2.702 1.12l.49.728c.602-.658 1.26-.938 2.072-.938.98 0 1.708.518 1.708 1.414v1.218c-.546-.616-1.316-.91-2.24-.91-1.148 0-2.352.7-2.352 2.226 0 1.47 1.218 2.24 2.352 2.24.91 0 1.694-.322 2.24-.938V98h1.05zm-2.898-.588c-.994 0-1.68-.616-1.68-1.484 0-.854.686-1.47 1.68-1.47.728 0 1.442.28 1.848.826v1.288c-.406.56-1.12.84-1.848.84zm7.173.756c1.736 0 2.646-.91 2.646-2.044 0-2.632-4.186-1.666-4.186-3.136 0-.602.574-1.064 1.498-1.064.882 0 1.61.364 2.016.854l.49-.728c-.532-.546-1.344-.98-2.506-.98-1.61 0-2.506.882-2.506 1.946 0 2.506 4.186 1.498 4.186 3.136 0 .672-.574 1.162-1.61 1.162-.924 0-1.778-.448-2.226-.966l-.532.756c.686.714 1.61 1.064 2.73 1.064zM18.576 25V14.328h-1.328V25h1.328zm8.868 0v-5.424c0-1.68-.848-2.496-2.448-2.496-1.168 0-2.224.656-2.768 1.312v-1.12h-1.2V25h1.2v-5.648c.464-.624 1.344-1.2 2.288-1.2 1.04 0 1.744.416 1.744 1.792V25h1.184zm5.788 0l3.216-7.728h-1.296l-2.576 6.336-2.56-6.336h-1.312L31.92 25h1.312zm7.972.192c1.248 0 2.288-.432 3.072-1.2l-.576-.784a3.363 3.363 0 0 1-2.4.992c-1.664 0-2.672-1.216-2.768-2.672h6.24v-.304c0-2.32-1.376-4.144-3.712-4.144-2.208 0-3.808 1.808-3.808 4.048 0 2.416 1.648 4.064 3.952 4.064zm2.384-4.56h-5.072c.064-1.168.88-2.56 2.528-2.56 1.76 0 2.528 1.424 2.544 2.56zm5.592 4.56c1.984 0 3.024-1.04 3.024-2.336 0-3.008-4.784-1.904-4.784-3.584 0-.688.656-1.216 1.712-1.216 1.008 0 1.84.416 2.304.976l.56-.832c-.608-.624-1.536-1.12-2.864-1.12-1.84 0-2.864 1.008-2.864 2.224 0 2.864 4.784 1.712 4.784 3.584 0 .768-.656 1.328-1.84 1.328-1.056 0-2.032-.512-2.544-1.104l-.608.864c.784.816 1.84 1.216 3.12 1.216zm6.941 0c.688 0 1.12-.208 1.424-.496l-.352-.912c-.16.176-.464.336-.816.336-.512 0-.768-.416-.768-.992v-4.8h1.568v-1.056H55.61V15.16h-1.216v2.112h-1.28v1.056h1.28v5.056c0 1.152.576 1.808 1.728 1.808zM64.888 25v-5.312c0-1.872-1.344-2.608-2.992-2.608-1.264 0-2.256.416-3.088 1.28l.56.832c.688-.752 1.44-1.072 2.368-1.072 1.12 0 1.952.592 1.952 1.616v1.392c-.624-.704-1.504-1.04-2.56-1.04-1.312 0-2.688.8-2.688 2.544 0 1.68 1.392 2.56 2.688 2.56 1.04 0 1.936-.368 2.56-1.072V25h1.2zm-3.312-.672c-1.136 0-1.92-.704-1.92-1.696 0-.976.784-1.68 1.92-1.68.832 0 1.648.32 2.112.944v1.472c-.464.64-1.28.96-2.112.96zm8.197.864c1.984 0 3.024-1.04 3.024-2.336 0-3.008-4.784-1.904-4.784-3.584 0-.688.656-1.216 1.712-1.216 1.008 0 1.84.416 2.304.976l.56-.832c-.608-.624-1.536-1.12-2.864-1.12-1.84 0-2.864 1.008-2.864 2.224 0 2.864 4.784 1.712 4.784 3.584 0 .768-.656 1.328-1.84 1.328-1.056 0-2.032-.512-2.544-1.104l-.608.864c.784.816 1.84 1.216 3.12 1.216zm5.582-9.024c.448 0 .8-.352.8-.8a.806.806 0 0 0-.8-.816.82.82 0 0 0-.816.816c0 .448.368.8.816.8zM75.947 25v-7.728h-1.2V25h1.2zm13.574 0v-1.184h-5.664v-3.68h5.552v-1.184h-5.552v-3.44h5.664v-1.184H82.53V25h6.992zm12.598 0v-5.584c0-1.552-.752-2.336-2.16-2.336-1.12 0-2.16.736-2.592 1.44-.224-.8-.896-1.44-2.064-1.44-1.152 0-2.176.816-2.512 1.312v-1.12h-1.2V25h1.2v-5.648c.416-.624 1.248-1.2 2.032-1.2 1.024 0 1.424.624 1.424 1.6V25h1.2v-5.664c.4-.624 1.248-1.184 2.048-1.184 1.008 0 1.424.624 1.424 1.6V25h1.2zm8.425 0v-5.312c0-1.872-1.344-2.608-2.992-2.608-1.264 0-2.256.416-3.088 1.28l.56.832c.688-.752 1.44-1.072 2.368-1.072 1.12 0 1.952.592 1.952 1.616v1.392c-.624-.704-1.504-1.04-2.56-1.04-1.312 0-2.688.8-2.688 2.544 0 1.68 1.392 2.56 2.688 2.56 1.04 0 1.936-.368 2.56-1.072V25h1.2zm-3.312-.672c-1.136 0-1.92-.704-1.92-1.696 0-.976.784-1.68 1.92-1.68.832 0 1.648.32 2.112.944v1.472c-.464.64-1.28.96-2.112.96zm8.198.864c1.984 0 3.024-1.04 3.024-2.336 0-3.008-4.784-1.904-4.784-3.584 0-.688.656-1.216 1.712-1.216 1.008 0 1.84.416 2.304.976l.56-.832c-.608-.624-1.536-1.12-2.864-1.12-1.84 0-2.864 1.008-2.864 2.224 0 2.864 4.784 1.712 4.784 3.584 0 .768-.656 1.328-1.84 1.328-1.056 0-2.032-.512-2.544-1.104l-.608.864c.784.816 1.84 1.216 3.12 1.216zm11.578 0c1.984 0 3.024-1.04 3.024-2.336 0-3.008-4.784-1.904-4.784-3.584 0-.688.656-1.216 1.712-1.216 1.008 0 1.84.416 2.304.976l.56-.832c-.608-.624-1.536-1.12-2.864-1.12-1.84 0-2.864 1.008-2.864 2.224 0 2.864 4.784 1.712 4.784 3.584 0 .768-.656 1.328-1.84 1.328-1.056 0-2.032-.512-2.544-1.104l-.608.864c.784.816 1.84 1.216 3.12 1.216zM138.013 25v-5.312c0-1.872-1.344-2.608-2.992-2.608-1.264 0-2.256.416-3.088 1.28l.56.832c.688-.752 1.44-1.072 2.368-1.072 1.12 0 1.952.592 1.952 1.616v1.392c-.624-.704-1.504-1.04-2.56-1.04-1.312 0-2.688.8-2.688 2.544 0 1.68 1.392 2.56 2.688 2.56 1.04 0 1.936-.368 2.56-1.072V25h1.2zm-3.312-.672c-1.136 0-1.92-.704-1.92-1.696 0-.976.784-1.68 1.92-1.68.832 0 1.648.32 2.112.944v1.472c-.464.64-1.28.96-2.112.96zm5.317 3.696c.208.064.608.112.864.112 1.024-.016 1.808-.448 2.272-1.568l3.872-9.296h-1.296l-2.576 6.336-2.56-6.336h-1.312l3.232 7.808-.512 1.168c-.272.64-.624.816-1.152.816a1.84 1.84 0 0 1-.656-.128l-.176 1.088zM154.31 25v-5.312c0-1.872-1.344-2.608-2.992-2.608-1.264 0-2.256.416-3.088 1.28l.56.832c.688-.752 1.44-1.072 2.368-1.072 1.12 0 1.952.592 1.952 1.616v1.392c-.624-.704-1.504-1.04-2.56-1.04-1.312 0-2.688.8-2.688 2.544 0 1.68 1.392 2.56 2.688 2.56 1.04 0 1.936-.368 2.56-1.072V25h1.2zm-3.312-.672c-1.136 0-1.92-.704-1.92-1.696 0-.976.784-1.68 1.92-1.68.832 0 1.648.32 2.112.944v1.472c-.464.64-1.28.96-2.112.96z"/>
    <rect width="50" height="19" x="-.5" y="-.5" fill="#DDD" stroke="#fff" rx="9.5" transform="translate(267 12)"/>
    <rect width="24" height="15" x="-.5" y="-.5" fill="#fff" stroke="#fff" rx="7.5" transform="translate(269 14)"/>
    <path fill="#FFAB00" d="M280.044 24l-1.956-3.144c.96-.156 1.896-.924 1.896-2.352 0-1.476-1.032-2.508-2.616-2.508h-3.516V24h1.404v-2.988h1.392L278.424 24h1.62zm-2.868-4.224h-1.92v-2.544h1.92c.792 0 1.368.504 1.368 1.272s-.576 1.272-1.368 1.272zm7.295 4.368c1.5 0 2.568-1.14 2.568-3.048 0-1.908-1.068-3.036-2.568-3.036-.756 0-1.428.36-1.86.936v-.792h-1.26v8.004h1.26v-3.012c.468.624 1.128.948 1.86.948zm-.372-1.116c-.588 0-1.212-.36-1.488-.78v-2.292c.276-.432.9-.78 1.488-.78.996 0 1.632.804 1.632 1.92 0 1.128-.636 1.932-1.632 1.932z"/>
    <path fill="#fff" d="M300.168 26.352c1.428 0 2.976-.564 2.976-2.652v-5.496h-1.26v.804c-.468-.612-1.128-.948-1.86-.948-1.488 0-2.568 1.104-2.568 2.976 0 1.908 1.092 2.976 2.568 2.976.756 0 1.416-.384 1.86-.96v.696c0 1.188-.888 1.572-1.716 1.572-.768 0-1.368-.204-1.836-.744l-.588.912c.708.648 1.44.864 2.424.864zm.228-3.456c-.996 0-1.632-.744-1.632-1.86s.636-1.86 1.632-1.86c.588 0 1.212.348 1.488.78v2.16c-.276.432-.9.78-1.488.78zm5.64 1.104v-3.948c.253-.408.96-.768 1.489-.768.156 0 .288.012.396.036v-1.248c-.756 0-1.452.432-1.884.984v-.852h-1.26V24h1.26z"/>
</svg>
