<svg xmlns="http://www.w3.org/2000/svg" width="40" height="40" fill="none" viewBox="0 0 40 40">
    <g clip-path="url(#a)">
        <path fill="#fff" d="M-46-427h360v657H-46z"/>
        <path stroke="#DDD" d="M-29.5-7a7.5 7.5 0 0 1 7.5-7.5h82A7.5 7.5 0 0 1 67.5-7v82a7.5 7.5 0 0 1-7.5 7.5h-82a7.5 7.5 0 0 1-7.5-7.5V-7z"/>
        <path fill="#FFAB00" fill-rule="evenodd" d="M14.42 10a2 2 0 0 0-1.897 1.368l-2.033 6.1a2.002 2.002 0 0 0 1.022 2.432H5.421a2 2 0 0 0-1.898 1.368l-2.033 6.1A2 2 0 0 0 3.387 30h15.226c.548 0 1.032-.216 1.387-.559.354.343.839.559 1.387.559h15.226a2 2 0 0 0 1.897-2.632l-2.033-6.1a2 2 0 0 0-1.898-1.368h-6.091a2.002 2.002 0 0 0 1.022-2.432l-2.033-6.1A2 2 0 0 0 25.579 10H14.421zm8.129 10.1h-5.098a2 2 0 0 1 1.026 1.168L20 25.838l1.523-4.57A2 2 0 0 1 22.55 20.1zM14.421 12h11.158l2.034 6.1H12.387l2.034-6.1zm2.158 9.9H5.421L3.387 28h15.226l-2.034-6.1zm18 0H23.421L21.387 28h15.226l-2.034-6.1z" clip-rule="evenodd"/>
    </g>
    <defs>
        <clipPath id="a">
            <path fill="#fff" d="M0 0h360v657H0z" transform="translate(-46 -427)"/>
        </clipPath>
    </defs>
</svg>
